inDegrees=no
num_controls=7
num_derivatives=13
num_iterations=76
num_multipliers=7
num_parameters=0
num_slacks=7
num_states=26
objective=0.445081
objective_accelerations=0.058449
objective_balance=0.002910
objective_effort=0.022381
objective_height=0.355920
objective_ligament=0.005421
solver_duration=1098.121552
status=Solve_Succeeded
success=true
DataType=double
version=3
OpenSimVersion=4.5
endheader
time	/jointset/ground_pelvis/pelvis_tilt/value	/jointset/ground_pelvis/pelvis_tx/value	/jointset/ground_pelvis/pelvis_ty/value	/jointset/hip_l/hip_flexion_l/value	/jointset/hip_l/hip_adduction_l/value	/jointset/hip_l/hip_rotation_l/value	/jointset/back/lumbar_extension/value	/jointset/patellofemoral_l/patellar_flexion_l/value	/jointset/knee_l/knee_flexion_l/value	/jointset/knee_l/knee_adduction_l/value	/jointset/knee_l/knee_rotation_l/value	/jointset/ankle_l/ankle_angle_l/value	/jointset/subtalar_l/subtalar_angle_l/value	/jointset/ground_pelvis/pelvis_tilt/speed	/jointset/ground_pelvis/pelvis_tx/speed	/jointset/ground_pelvis/pelvis_ty/speed	/jointset/hip_l/hip_flexion_l/speed	/jointset/hip_l/hip_adduction_l/speed	/jointset/hip_l/hip_rotation_l/speed	/jointset/back/lumbar_extension/speed	/jointset/patellofemoral_l/patellar_flexion_l/speed	/jointset/knee_l/knee_flexion_l/speed	/jointset/knee_l/knee_adduction_l/speed	/jointset/knee_l/knee_rotation_l/speed	/jointset/ankle_l/ankle_angle_l/speed	/jointset/subtalar_l/subtalar_angle_l/speed	/forceset/tau_hip_flexion_l	/forceset/tau_hip_adduction_l	/forceset/tau_hip_rotation_l	/forceset/tau_knee_flexion_l	/forceset/tau_ankle_angle_l	/forceset/tau_subtalar_angle_l	/forceset/tau_lumbar_extension	lambda_cid13_p0	lambda_cid13_p1	lambda_cid13_p2	lambda_cid13_p3	lambda_cid13_p4	lambda_cid13_p5	lambda_cid14_p0	/jointset/ground_pelvis/pelvis_tilt/accel	/jointset/ground_pelvis/pelvis_tx/accel	/jointset/ground_pelvis/pelvis_ty/accel	/jointset/hip_l/hip_flexion_l/accel	/jointset/hip_l/hip_adduction_l/accel	/jointset/hip_l/hip_rotation_l/accel	/jointset/back/lumbar_extension/accel	/jointset/patellofemoral_l/patellar_flexion_l/accel	/jointset/knee_l/knee_flexion_l/accel	/jointset/knee_l/knee_adduction_l/accel	/jointset/knee_l/knee_rotation_l/accel	/jointset/ankle_l/ankle_angle_l/accel	/jointset/subtalar_l/subtalar_angle_l/accel	gamma_cid13_p0	gamma_cid13_p1	gamma_cid13_p2	gamma_cid13_p3	gamma_cid13_p4	gamma_cid13_p5	gamma_cid14_p0
1.5	-0.3335715193259595	-0.006299590385507828	0.7614459924343331	1.069866928978684	-0.4372189833370737	-0.2037331204206947	-0.2249190633359508	0.8434834692111541	0.8434834692115674	-0.1198258986616675	-0.14502182110516	0.1739387268591993	0.004173094830092279	0.5890090662442814	0.2201142800919418	0.5373059837770824	-2.351232862539048	0.214307002151593	-0.731883018838215	0.3131075839405289	-2.113724930332243	-2.113724930331936	-0.1592244016005714	0.1338432744899086	-0.5306925016897662	-0.03648630835255402	-0.1568718150559904	0.04290925860802892	-0.01027988312297367	-0.2213920682216696	0.04164562986133637	0.02751409107919707	0.1568769038496175	-18.85984382359478	-11.18197923934228	4.342183204661198	-8.825993491730836	-520.4597831428899	-49.6638093451764	-23.08607584315907	0.5771065394030972	0.6952520942681605	-0.5255881415019996	-1.261094075206063	0.6984572293967	-0.2646812716935747	1.435451847862424	-1.394279386663321	-1.394279386663355	0.1514974514647635	0.1939991372074967	-0.5231244588159019	0.5286255973917213	6.000679452921748e-07	1.658621133585172e-08	-4.180092074623865e-06	-2.90781541720204e-07	8.842140887333322e-07	1.160939113754859e-07	5.344054579796172e-07
1.51	-0.3276525728132308	-0.004063931755336688	0.7667916699690703	1.046293210514499	-0.4350426891941897	-0.2110605137396478	-0.2217175210931686	0.8222787598273577	0.8222787598276221	-0.1214163371442892	-0.1436728780373085	0.1686058437850193	0.003832478777114856	0.5946929752398965	0.226984897048958	0.5317116258032575	-2.36317151703281	0.2209287962916059	-0.7334778741440263	0.3271584047547161	-2.126917945498737	-2.126917945498509	-0.15886658026413	0.1359467339078044	-0.5358028181006309	-0.03162985947155202	-0.1513300999078276	0.04211172251233213	-0.01001890233965264	-0.2181671592931836	0.04237968420358613	0.02691101635930778	0.1522913484223221	-18.42367222556798	-11.01959474768725	4.342747988624561	-8.72818974468578	-516.4763551920191	-49.7390510219538	-24.05980300986747	0.5510263244891512	0.678034131269434	-0.5938595884452733	-1.109253846420801	0.6411169194070826	-0.08869267855501156	1.383528219124979	-1.237071055264151	-1.237071055276076	-0.02268917897768709	0.217925008485407	-0.4928181059639911	0.4656646133057842	6.182776143236322e-07	1.282215343078246e-07	-4.13920940550041e-06	-2.639678912242859e-07	9.099512939240875e-07	2.365116503474711e-07	5.401214084441972e-07
1.52	-0.3216793885615698	-0.001760553428625074	0.7720779039314448	1.022610304963385	-0.4328007618272849	-0.2184002166153653	-0.2183767444380588	0.8009510685971534	0.8009510685973	-0.1230033201442533	-0.1423030192424456	0.1632242909719825	0.003540729228917742	0.599856614029438	0.2336582194000367	0.5254172693045474	-2.373070279924954	0.2274336469557579	-0.734344930191047	0.3409544664060208	-2.138321299610096	-2.138321299609948	-0.1585333050761512	0.1380264199018925	-0.5404264494611852	-0.02671300739649636	-0.1457883847596961	0.04131418641663587	-0.009757921555948628	-0.2149422503647192	0.04311373854583837	0.0263079416394151	0.1477057929949941	-17.98934350022605	-10.85857816474678	4.345464719975112	-8.683299846488435	-512.5511075202199	-49.88629767161523	-25.03259722076913	0.4730524981885122	0.655793173080602	-0.6655878464790412	-0.8531157548823003	0.6750685342245125	-0.1191214199354532	1.384500015286012	-1.036347175636315	-1.036347175636374	0.1465882217722946	0.1892444524459618	-0.4257874487539288	0.5407062362024176	6.323075900167536e-07	3.158322067611562e-07	-4.002807345530122e-06	-2.179336283246082e-07	9.274159874084825e-07	3.630618568401256e-07	5.440231874915596e-07
1.53	-0.3156571719944607	0.0006086226395538531	0.7772978097602732	0.9988382822620927	-0.4304945629399444	-0.2257458430908079	-0.214899583687885	0.7795182578550237	0.7795182578551415	-0.1245867938694574	-0.1409130741928326	0.1577990727570172	0.003298329137184468	0.6044853624378409	0.2401482705531588	0.5184546939975384	-2.380997339131834	0.2337708237886841	-0.7346476001170853	0.3544204633349987	-2.147934741649223	-2.147934741648725	-0.1581872513825963	0.1399724698829151	-0.5445169661379261	-0.02176348566824158	-0.1397594566817855	0.0394624329754853	-0.009477459109128662	-0.2128061538258389	0.04504980312365815	0.02581186295341195	0.1427621964974809	-17.17978842281468	-10.81065497956304	4.367266239034989	-8.933676119286151	-508.8196971795899	-50.32630230366308	-26.00334469915228	0.4426522437629183	0.6412793538361468	-0.7277845952923503	-0.7118791396192246	0.6081491008927615	0.03461024546222399	1.319066487771262	-0.8780360535822018	-0.8780360535297449	-0.02529061318353723	0.1980537125874093	-0.3856449011968584	0.4729136575642153	6.418966415378933e-07	5.841666880384308e-07	-3.764915932785077e-06	-1.514774647459361e-07	9.360911372048697e-07	4.96127810073491e-07	5.459974094081285e-07
1.54	-0.3095916946969423	0.003041832872745746	0.7824448513915352	0.9749971133415266	-0.4281259709156618	-0.23309040626063	-0.2112894795772081	0.7579984740253777	0.7579984740255025	-0.1261675879689541	-0.1395035149551295	0.1523359571504722	0.003105591966019196	0.6085087601101018	0.2464650524026299	0.5108444297913209	-2.38689952377985	0.2399122743442527	-0.7341322690671184	0.3675431385066729	-2.155715917109603	-2.155715917108756	-0.1579973799422681	0.1419492575302188	-0.5480059277771753	-0.01678042328289877	-0.1337305286039074	0.03761067953433925	-0.009196996661947643	-0.2106700572869825	0.04698586770148112	0.02531578426741135	0.1378185999999324	-16.37004547200845	-10.76234203154389	4.388525332415209	-9.236715954925753	-505.1171369364203	-50.83053901126101	-26.97169890881456	0.3519823509602298	0.6211393123503216	-0.795125626320774	-0.4481408431096403	0.6359232787529794	0.04447877526561314	1.315835663825386	-0.6698938598870072	-0.6698938598870755	0.1153517711269717	0.1953919857021773	-0.3054764412556997	0.5474143676199825	5.788502770538751e-07	1.034145293454416e-06	-2.95452761653928e-06	-7.82135761624262e-09	8.377315940345516e-07	5.765312806118563e-07	5.001010402042271e-07
1.55	-0.3034890786199863	0.005537015848503473	0.7875125665134527	0.9511078026073404	-0.4256964077970504	-0.2404296928441254	-0.207549875395416	0.7364105966065911	0.736410596606665	-0.1277434904061882	-0.1380765244156888	0.1468409166644215	0.002963563351061483	0.6119270972303432	0.2525107681655191	0.5025934198367171	-2.390591262388593	0.2459674069660588	-0.7335883112916004	0.3802977702606567	-2.161528752872848	-2.161528752872011	-0.1571948262629151	0.1434538732819043	-0.5509225324328997	-0.01163060446044634	-0.1285102352901166	0.03703343810045768	-0.008806509095875013	-0.2068910213863211	0.04655541459358093	0.02433841289306584	0.1333668819312571	-16.34461093567562	-10.35162812668293	4.333674637487034	-8.654666427778849	-501.4926838353276	-50.70119978272021	-27.93799557459376	0.3236384807661453	0.5872423218863884	-0.8557663148277087	-0.2739985498816003	0.585211524235177	0.08017389329708574	1.243287792667069	-0.487424949973042	-0.4874249499745021	0.06126128214765746	0.1285794200520504	-0.2727212751833078	0.497717956676929	4.321152810856579e-07	1.693409520160644e-06	-1.484523302781783e-06	2.247825105613621e-07	6.160494698373841e-07	5.962584123929422e-07	3.990494247093521e-07
1.56	-0.2973549033541802	0.008090846904615848	0.7924946360088645	0.9271927128510418	-0.4232073126981538	-0.2477593759269433	-0.203685122723788	0.714774501527072	0.7147745015271197	-0.1293116564834416	-0.1366343711087381	0.1413191163723236	0.002872823387752126	0.6148205978789723	0.2581946684735592	0.4937153044902253	-2.39205532820234	0.2518186704014926	-0.7322115689319978	0.3925728364739196	-2.165359449253282	-2.165359449252454	-0.1564501079512351	0.1449818110396025	-0.5533578889867248	-0.006522692953231784	-0.1232899419763649	0.03645619666658383	-0.008416021529565793	-0.2031119854856749	0.04612496148568693	0.0233610415187309	0.1289151638625378	-16.31983847750058	-9.94549261622681	4.284916524320776	-8.11360200646638	-497.8983233289543	-50.60440190145011	-28.90335552107636	0.2470150566379007	0.5487762213804245	-0.9205467046983952	-0.002606284110510025	0.5951494414785095	0.2110356920825197	1.219922555681263	-0.2734659833245468	-0.2734659833245786	0.1037846975923997	0.2000563869047255	-0.2092268208759658	0.5390329045723644	3.775213708764867e-07	2.083211693981282e-06	-8.470417425143844e-07	3.49014658089974e-07	5.289891271272768e-07	6.544450784884074e-07	3.666607091301552e-07
1.57	-0.2911944416745674	0.0106999039820679	0.7973849461355604	0.9032735585944847	-0.4206610892471961	-0.2550711846593051	-0.1997001666187438	0.6931099446248441	0.6931099446247007	-0.1308733477445613	-0.135177009480715	0.1357756585218937	0.002832704594173279	0.6171611052529402	0.2635729761710642	0.4842561929974755	-2.391417211978772	0.2573887604325436	-0.7300765950176455	0.4043423376030524	-2.167215557665715	-2.167215557664686	-0.1558582207706066	0.1464554855871861	-0.5552177430282881	-0.001488093399501933	-0.1173834611368863	0.03433412973308764	-0.008164642162431783	-0.201179686035909	0.04787588099971436	0.02269682472640603	0.1240285175891482	-15.61088622308659	-9.801271588401843	4.284900535022364	-8.243115708193288	-494.7407060704237	-51.05415916085608	-29.86903418484733	0.2109712825726403	0.525858679794894	-0.9720411558629487	0.150772605660258	0.5322853434341652	0.2261820221586242	1.144056851907136	-0.09131741483931298	-0.09131741480917194	0.04166086124713653	0.1154395201490194	-0.1568925509009335	0.4874460677892886	4.381038178661215e-07	2.136186301694938e-06	-1.2502136241096e-06	3.377821548073465e-07	6.102060112759933e-07	7.607061624768464e-07	4.201006184455553e-07
1.58	-0.2850138943802495	0.013361444263667	0.802177975590469	0.8793715359061774	-0.4180602955840255	-0.2623593528963131	-0.1955997969103329	0.6714368998095562	0.6714368998092378	-0.1324281661072715	-0.1337060278009436	0.1302170965600278	0.002843286313534951	0.6188377208187471	0.2686913093029694	0.474259170132754	-2.388629014552413	0.2627327128442239	-0.727483469861413	0.4156555571472899	-2.167057031863611	-2.167057031862381	-0.1550755282720152	0.1477058213933225	-0.556378711274029	0.003617409634867428	-0.1114769802974487	0.03221206279959608	-0.007913262795173818	-0.1992473865861518	0.0496268005137472	0.02203260793408804	0.1191418713157148	-14.90507682708327	-9.6586386294149	4.287581120791141	-8.404636776523679	-491.6490020689731	-51.55801509433004	-30.82125531445324	0.1142366950058332	0.4967813082603652	-1.028128979092731	0.4274099564477754	0.5499219176043717	0.3026659404585982	1.128666238702304	0.1294608595827814	0.1294608595827953	0.1419457611850302	0.1553886386152713	-0.06944966171161135	0.5532136007002172	4.536934188013373e-07	2.156246250108242e-06	-1.413178258603525e-06	3.395500082655708e-07	6.272105258369336e-07	8.143267678659382e-07	4.395452537521006e-07
